<svg width="228" height="163" viewBox="0 0 228 163" fill="none" xmlns="http://www.w3.org/2000/svg">
<path d="M227.5 60H126.5C110.208 60 97 46.7924 97 30.5V30.5C97 14.2076 110.208 1 126.5 1H154.5C180.181 1 201 21.8188 201 47.5V47.5C201 73.1812 180.181 94 154.5 94H70C57.5736 94 47.5 83.9264 47.5 71.5V71.5C47.5 59.0736 57.5736 49 70 49H130.75C162.092 49 187.5 74.4078 187.5 105.75V110C187.5 138.995 163.995 162.5 135 162.5H125.75C101.864 162.5 82.5 143.136 82.5 119.25V119.25C82.5 95.3637 63.1363 76 39.25 76H-22" stroke="#2D2D2D"/>
</svg>
