<svg width="157" height="33" viewBox="0 0 157 33" fill="none" xmlns="http://www.w3.org/2000/svg">
<path fill-rule="evenodd" clip-rule="evenodd" d="M125.385 22.209C125.613 21.5407 125.699 20.698 125.699 19.3031C125.699 17.908 125.613 17.0943 125.385 16.3969C124.926 15.002 123.867 14.3043 122.35 14.3043C120.832 14.3043 119.801 15.0309 119.343 16.3969C119.114 17.1526 119.028 18.0535 119.028 19.3031C119.028 20.5818 119.114 21.4825 119.343 22.209C119.801 23.5751 120.832 24.3305 122.35 24.3305C123.867 24.3305 124.926 23.6039 125.385 22.209ZM125.986 26.2778C125.814 26.2778 125.699 26.1616 125.699 25.9871V24.6505H125.671C125.012 25.7545 123.838 26.5972 121.777 26.5972C119.401 26.5972 117.74 25.4638 117.053 23.2551C116.681 22.1511 116.566 21.0468 116.566 19.3031C116.566 17.5885 116.681 16.484 117.053 15.3797C117.74 13.1709 119.401 12.0376 121.777 12.0376C123.838 12.0376 125.012 12.8515 125.671 13.9554H125.699V6.80665C125.699 6.63222 125.814 6.51575 125.986 6.51575H127.818C127.99 6.51575 128.104 6.63222 128.104 6.80665V25.9871C128.104 26.1616 127.99 26.2778 127.818 26.2778H125.986ZM139.901 21.7733V20.2328C139.901 20.1167 139.844 20.0584 139.729 20.0584H136.981C134.604 20.0584 133.574 20.7561 133.574 22.3252C133.574 23.7494 134.604 24.5051 136.437 24.5051C138.584 24.5051 139.901 23.4879 139.901 21.7733ZM140.245 26.2777C140.073 26.2777 139.958 26.1615 139.958 25.9871V24.7666H139.93C139.3 25.8126 137.954 26.5974 135.864 26.5974C133.259 26.5974 131.255 25.2317 131.255 22.4125C131.255 19.4775 133.259 18.1114 136.609 18.1114H139.729C139.844 18.1114 139.901 18.0535 139.901 17.937V16.9198C139.901 15.0019 139.156 14.188 136.609 14.188C135.062 14.188 134.089 14.5948 133.287 15.1764C133.144 15.2926 132.972 15.2926 132.886 15.147L132.113 13.8103C132.028 13.6359 132.056 13.5197 132.171 13.4035C133.201 12.5899 134.805 12.0378 136.837 12.0378C140.731 12.0378 142.22 13.3453 142.22 16.7748V25.9871C142.22 26.1615 142.106 26.2777 141.934 26.2777H140.245ZM145.943 31.5087C145.771 31.5087 145.657 31.3925 145.657 31.2181V29.5326C145.657 29.3582 145.771 29.242 145.943 29.242H146.459C147.575 29.242 148.176 28.7481 148.778 27.1494L149.236 25.871L144.197 12.6477C144.139 12.4736 144.225 12.3571 144.426 12.3571H146.43C146.602 12.3571 146.716 12.4444 146.773 12.6477L150.381 22.7033H150.438L153.903 12.6477C153.96 12.4444 154.075 12.3571 154.246 12.3571H156.193C156.365 12.3571 156.479 12.4736 156.422 12.6477L151.011 27.3532C149.808 30.6369 148.749 31.5087 146.688 31.5087H145.943Z" fill="#313131"/>
<path fill-rule="evenodd" clip-rule="evenodd" d="M76.4244 12.4164C76.4244 10.2659 75.0215 8.92898 72.6165 8.92898H68.2646C68.1501 8.92898 68.0927 8.98721 68.0927 9.10341V15.7295C68.0927 15.8457 68.1501 15.9036 68.2646 15.9036H72.6165C75.0215 15.9036 76.4244 14.567 76.4244 12.4164ZM65.8309 26.2787C65.6593 26.2787 65.5446 26.1625 65.5446 25.988V6.80755C65.5446 6.6334 65.6593 6.51693 65.8309 6.51693H72.7596C76.5102 6.51693 78.9439 8.8419 78.9439 12.4164C78.9439 15.991 76.5102 18.3157 72.7596 18.3157H68.2646C68.1501 18.3157 68.0927 18.3739 68.0927 18.4901V25.988C68.0927 26.1625 67.9783 26.2787 67.8064 26.2787H65.8309ZM84.8716 26.4242C82.4663 26.4242 81.5216 25.2617 81.5216 22.7623V6.80774C81.5216 6.63332 81.6361 6.51685 81.8079 6.51685H83.6403C83.8121 6.51685 83.9266 6.63332 83.9266 6.80774V22.617C83.9266 23.7794 84.3561 24.1571 85.3008 24.1571H85.845C86.0166 24.1571 86.1311 24.2733 86.1311 24.4478V26.1333C86.1311 26.3077 86.0166 26.4242 85.845 26.4242H84.8716ZM96.6109 21.7743V20.2339C96.6109 20.1177 96.5535 20.0594 96.439 20.0594H93.6906C91.314 20.0594 90.2832 20.7571 90.2832 22.3262C90.2832 23.7504 91.314 24.5061 93.1464 24.5061C95.2938 24.5061 96.6109 23.4889 96.6109 21.7743ZM96.9543 26.2787C96.7825 26.2787 96.668 26.1625 96.668 25.9881V24.7676H96.6393C96.0096 25.8136 94.6637 26.5984 92.5737 26.5984C89.9684 26.5984 87.9642 25.2327 87.9642 22.4135C87.9642 19.4785 89.9684 18.1124 93.3182 18.1124H96.439C96.5535 18.1124 96.6109 18.0545 96.6109 17.938V16.9208C96.6109 15.0029 95.8661 14.189 93.3182 14.189C91.7721 14.189 90.7987 14.5959 89.9969 15.1774C89.854 15.2936 89.6821 15.2936 89.5961 15.148L88.8229 13.8113C88.7374 13.6369 88.7658 13.5207 88.8803 13.4045C89.9111 12.5909 91.5145 12.0388 93.5472 12.0388C97.4411 12.0388 98.9298 13.3463 98.9298 16.7758V25.9881C98.9298 26.1625 98.8154 26.2787 98.6435 26.2787H96.9543ZM111.557 26.2787C111.385 26.2787 111.271 26.1625 111.271 25.9881V17.8507C111.271 15.6131 110.268 14.3053 108.207 14.3053C106.346 14.3053 105.058 15.6425 105.058 17.7057V25.9881C105.058 26.1625 104.943 26.2787 104.771 26.2787H102.939C102.767 26.2787 102.653 26.1625 102.653 25.9881V12.6489C102.653 12.4748 102.767 12.3583 102.939 12.3583H104.771C104.943 12.3583 105.058 12.4748 105.058 12.6489V13.9276H105.086C105.745 12.8525 107.062 12.0386 108.923 12.0386C111.901 12.0386 113.676 14.102 113.676 17.2697V25.9881C113.676 26.1625 113.561 26.2787 113.389 26.2787H111.557Z" fill="#313131"/>
<path fill-rule="evenodd" clip-rule="evenodd" d="M41.6511 13.4403C41.0468 10.6545 39.5589 8.02 37.1659 5.98204C31.3188 1.00181 23.0262 1.98682 18.3495 7.64424L18.3492 7.64452L18.3489 7.6448L1.36213 28.1933C0.260017 29.5266 0.345804 31.0096 1.56867 32.0512C2.79153 33.0928 4.24553 32.9209 5.34764 31.5878L15.5188 19.2838L22.288 11.0957L22.2893 11.0968C22.3046 11.0776 22.3191 11.0579 22.3347 11.0391C22.4273 10.927 22.5218 10.8189 22.6177 10.7132C22.6333 10.6963 22.6497 10.68 22.6653 10.6628C25.7694 7.30842 30.6527 7.24769 33.8609 9.98003C33.8609 9.98003 33.8801 9.99223 33.9161 10.0125C37.6844 13.2678 37.4842 18.481 34.8352 21.6853C34.7429 21.7971 34.5205 22.0444 34.5046 22.0614C31.4007 25.4157 26.5912 25.4878 23.254 22.7117C22.5574 22.1099 21.9965 21.4413 21.5618 20.7305C21.0405 19.8784 19.8521 19.7924 19.218 20.5617L17.0394 23.2036C17.7924 24.4998 18.7792 25.6991 20.004 26.7424C25.8511 31.7223 34.1437 30.7373 38.8204 25.0802C38.8204 25.0802 42.5584 20.6804 41.6511 13.4403Z" fill="#313131"/>
<path fill-rule="evenodd" clip-rule="evenodd" d="M41.6597 13.442L51.8311 1.13823C52.9332 -0.195079 54.387 -0.366734 55.6098 0.674568C56.8327 1.71615 56.9188 3.19948 55.8166 4.53252L38.8206 25.0796C34.1438 30.737 25.851 31.7217 20.0039 26.7418C18.7793 25.6988 17.7925 24.4992 17.0393 23.2033L19.2178 20.5611C19.8522 19.7921 21.0407 19.8781 21.5619 20.7302C21.9966 21.4407 22.566 22.1115 23.2626 22.7133C26.5742 25.4786 31.3954 25.4179 34.4996 22.0636C34.5037 22.0591 34.7621 21.7693 34.8301 21.6873L41.6597 13.442Z" fill="#313131"/>
</svg>
