<svg width="34" height="6" viewBox="0 0 34 6" fill="none" xmlns="http://www.w3.org/2000/svg">
<path d="M3 0L3.67354 2.07295H5.85317L4.08981 3.3541L4.76336 5.42705L3 4.1459L1.23664 5.42705L1.91019 3.3541L0.146831 2.07295H2.32646L3 0Z" fill="#FFBA0A"/>
<path d="M10 0L10.6735 2.07295H12.8532L11.0898 3.3541L11.7634 5.42705L10 4.1459L8.23664 5.42705L8.91019 3.3541L7.14683 2.07295H9.32646L10 0Z" fill="#FFBA0A"/>
<path d="M17 0L17.6735 2.07295H19.8532L18.0898 3.3541L18.7634 5.42705L17 4.1459L15.2366 5.42705L15.9102 3.3541L14.1468 2.07295H16.3265L17 0Z" fill="#FFBA0A"/>
<path d="M24 0L24.6735 2.07295H26.8532L25.0898 3.3541L25.7634 5.42705L24 4.1459L22.2366 5.42705L22.9102 3.3541L21.1468 2.07295H23.3265L24 0Z" fill="#FFBA0A"/>
<path d="M31 0L31.6735 2.07295H33.8532L32.0898 3.3541L32.7634 5.42705L31 4.1459L29.2366 5.42705L29.9102 3.3541L28.1468 2.07295H30.3265L31 0Z" fill="#FFBA0A"/>
</svg>
